<svg xmlns="http://www.w3.org/2000/svg" width="37.001" height="22.251" viewBox="0 0 37.001 22.251"><path d="M7.38,26.37a4.745,4.745,0,0,1-2.52.686,4.889,4.889,0,0,1-3.616-8.147,4.786,4.786,0,0,1,3.087-1.575,5.1,5.1,0,0,1-.063-.848,5.965,5.965,0,0,1,1.755-4.243A6.035,6.035,0,0,1,10.285,10.5a5.615,5.615,0,0,1,2.891.754,8.174,8.174,0,0,1,2.79-2.8A7.657,7.657,0,0,1,24.84,9.2a7.79,7.79,0,0,1,2.628,4.534h-.432a5.322,5.322,0,0,0-1.845.288,7.4,7.4,0,0,0-5.519-2.358,8.357,8.357,0,0,0-2.842.488,7.475,7.475,0,0,0-2.437,1.436,7.313,7.313,0,0,0-2.473,4.043,7.947,7.947,0,0,0-1.539.466A5.239,5.239,0,0,0,8.44,19.6,5.616,5.616,0,0,0,7.31,21.557a7.093,7.093,0,0,0-.376,2.309,6.461,6.461,0,0,0,.45,2.5Zm25.272-5.618c2.362.585,3.476,1.98,3.337,4.172s-1.417,3.429-3.834,3.706H13.05Q8.315,28,8.4,23.735t4.815-4.7q.621-4.573,4.68-5.67t6.919,2.524a3.448,3.448,0,0,1,2.475-.689,6.154,6.154,0,0,1,2.547.657,5.021,5.021,0,0,1,2.1,2,5.789,5.789,0,0,1,.725,2.891Z" transform="translate(0.5 -6.878)" fill="#fff" stroke="#fff" stroke-linejoin="round" stroke-miterlimit="1.414" stroke-width="1"/></svg>